<svg width="512" height="512" viewBox="0 0 512 512" fill="none" xmlns="http://www.w3.org/2000/svg">
  <path d="M104 111L159 82H353L408 111V260C408 331 338 384 256 421C174 384 104 331 104 260V111Z" fill="#fff"/>
  <path d="M104 111L159 82H353L408 111V260C408 331 338 384 256 421C174 384 104 331 104 260V111Z" stroke="#27317f" stroke-width="18" stroke-linejoin="round"/>
  <path d="M111 209V261C111 328 176 377 256 412C336 377 401 328 401 261V209C384 284 324 333 256 365C188 333 128 284 111 209Z" fill="#ff6417"/>
  <path d="M134 112C163 98 188 95 218 95H294C324 95 349 98 378 112" stroke="#27317f" stroke-width="12" stroke-linecap="round"/>
  <text x="256" y="184" text-anchor="middle" font-family="Arial Black, Arial, sans-serif" font-size="66" font-weight="900" fill="#f56618" letter-spacing="2">WORK</text>
  <text x="256" y="258" text-anchor="middle" font-family="Arial Black, Arial, sans-serif" font-size="76" font-weight="900" fill="#27317f" letter-spacing="1">YAAR</text>
  <path d="M179 315H300C313 315 324 326 324 339V363H160V339C160 326 166 315 179 315Z" fill="#fff" stroke="#ff6417" stroke-width="14" stroke-linejoin="round"/>
  <path d="M208 315V295C208 285 216 277 226 277H274C284 277 292 285 292 295V315" stroke="#ff6417" stroke-width="14" stroke-linecap="round"/>
  <path d="M172 339C212 354 272 354 314 339" stroke="#ff6417" stroke-width="12" stroke-linecap="round"/>
  <path d="M248 372L361 278" stroke="#fff" stroke-width="22" stroke-linecap="round"/>
  <path d="M254 373L365 280" stroke="#ff6417" stroke-width="13" stroke-linecap="round"/>
  <path d="M338 277L383 257L366 303" fill="#fff" stroke="#ff6417" stroke-width="13" stroke-linejoin="round"/>
  <rect x="250" y="338" width="20" height="18" fill="#ff6417"/>
</svg>